# xmcd
#
# Track frame offsets: 
#        150
#        16905
#        30472
#        44556
#        58454
#        71729
#        92404
#        113832
#        132855
#        157272
#        180226
#        197138
#        220296
#        232854
#        245632
#        266598
#        275875
#        283894
#        293749
#        311257
#
# Disc length: 4287 seconds
#
# Revision: 0
# Processed by: cddbd v1.5.2PL0 Copyright (c) Steve Scherf et al.
# Submitted via: ExactAudioCopy v0.95b4
#
DISCID=3010bd14
DTITLE=Elvis Presley - The American Way, Volume 2
DYEAR=2007
DGENRE=Rock and Roll
TTITLE0=Wearin' That Loved On Look (Takes 2-9)
TTITLE1=Wearin' That Loved On Look (Take 10)
TTITLE2=Wearin' That Loved On Look (Take 11-13)
TTITLE3=Wearin' That Loved On Look (Take 14)
TTITLE4=You'll Think Of Me (Take 1-5)
TTITLE5=You'll Think Of Me (Take 6)
TTITLE6=You'll Think Of Me (Take 7)
TTITLE7=You'll Think Of Me (Take 8)
TTITLE8=A Little Bit Of Green (Takes 1, 2)
TTITLE9=After Loving You (Takes 1, 2)
TTITLE10=After Loving You (Take 3)
TTITLE11=Only The Strong Survive (Takes 1, 2)
TTITLE12=Only The Strong Survive (Take 3)
TTITLE13=Only The Strong Survive (Take 4)
TTITLE14=Only The Strong Survive (Takes 5, 6)
TTITLE15=Only The Strong Survive (Takes7, 8)
TTITLE16=Only The Strong Survive (Takes 9, 10)
TTITLE17=Only The Strong Survive (Take 11)
TTITLE18=From A Jack To A King (Takes 1-3)
TTITLE19=From A Jack To A King (Take 4)
EXTD=
EXTT0=
EXTT1=
EXTT2=
EXTT3=
EXTT4=
EXTT5=
EXTT6=
EXTT7=
EXTT8=
EXTT9=
EXTT10=
EXTT11=
EXTT12=
EXTT13=
EXTT14=
EXTT15=
EXTT16=
EXTT17=
EXTT18=
EXTT19=
PLAYORDER=
